#!OML:ASF E:\id_vita\Project 1\Capture day 1\Session 1\Male1.ASF
:FULLY-SPECIFIED
:DEGREES
1011
root -2.61972 12.7397 -1.19236 -318.39 -82.546 357.484
lowerback 36.2391 1.54075 -0.806808
upperback 8.99345 0.584468 -1.14022
thorax -8.06823 -0.0526266 -0.955984
lowerneck -10.8224 1.90365 1.99479
upperneck 7.17336 1.62387 5.62067
head 4.31116 1.1184 1.66457
rclavicle 1.52319e-014 2.0568e-014
rhumerus 40.0388 23.5276 -47.5011
rradius 57.9036
rwrist 12.9497
rhand -27.9917 26.2541
rfingers 7.12502
rthumb -1.37793 -3.7212
lclavicle 1.52319e-014 2.0568e-014
lhumerus 60.8166 -21.4083 29.812
lradius 46.8659
lwrist -18.8599
lhand -43.8936 78.739
lfingers 7.12502
lthumb -16.7188 251.961
rfemur -12.9161 6.13048 23.8679
rtibia 37.5208
rfoot -44.4821 -23.9792
rtoes -13.965
lfemur -86.9978 -2.35296 -29.5993
ltibia 84.948
lfoot -12.9496 31.822
ltoes -3.43661
1012
root -2.77402 12.7159 -1.17437 -321.245 -82.5092 360.454
lowerback 36.1125 1.5405 -0.967513
upperback 8.93849 0.538921 -1.17447
thorax -8.0856 -0.0674282 -0.890742
lowerneck -10.7497 1.90253 2.26039
upperneck 6.91887 1.62127 5.41092
head 4.20699 1.1081 1.53748
rclavicle -3.40916e-014 -3.90488e-014
rhumerus 39.4833 23.6111 -47.3931
rradius 58.2665
rwrist 12.7534
rhand -27.9489 26.2438
rfingers 7.12502
rthumb -1.33652 -3.73177
lclavicle -3.40916e-014 -3.90488e-014
lhumerus 60.7901 -21.7108 29.3819
lradius 47.4234
lwrist -18.5304
lhand -44.0381 78.8201
lfingers 7.12502
lthumb -16.8579 251.892
rfemur -12.5136 6.16132 23.5528
rtibia 37.9153
rfoot -44.7382 -23.6412
rtoes -13.2093
lfemur -86.5347 -2.45375 -29.9996
ltibia 84.4204
lfoot -8.02923 34.0019
ltoes 26.5162
1013
root -2.91241 12.7075 -1.1506 -321.89 -82.328 361.604
lowerback 35.4452 1.4165 -0.752861
upperback 8.85819 0.497063 -1.22749
thorax -7.93385 -0.0758477 -1.04138
lowerneck -10.7469 1.89885 2.45063
upperneck 6.68672 1.61288 5.28898
head 4.1248 1.09811 1.45611
rclavicle 6.65929e-015 9.0944e-015
rhumerus 38.9638 23.6512 -47.4473
rradius 58.5863
rwrist 12.5867
rhand -27.9007 26.2718
rfingers 7.12502
rthumb -1.28997 -3.70408
lclavicle 6.65929e-015 9.0944e-015
lhumerus 60.7535 -22.0157 29.1764
lradius 47.8246
lwrist -18.4383
lhand -44.1873 78.6971
lfingers 7.12502
lthumb -17.0015 252.027
rfemur -12.0078 6.24407 23.4103
rtibia 36.7298
rfoot -43.983 -22.5541
rtoes -11.9206
lfemur -86.6653 -2.64145 -30.2654
ltibia 84.5462
lfoot -9.79564 33.3398
ltoes 6.73321
1014
root -3.05769 12.6921 -1.13458 -322.627 -82.2336 362.413
lowerback 35.2785 1.40929 -0.717321
upperback 8.82538 0.514618 -1.20821
thorax -7.90922 -0.0647138 -1.04565
lowerneck -10.8411 1.87802 2.3707
upperneck 6.487 1.59676 5.36269
head 4.07137 1.08826 1.4921
rclavicle 2.68359e-015 4.09993e-015
rhumerus 38.5087 23.7955 -47.3541
rradius 58.9641
rwrist 12.2904
rhand -27.8882 26.2483
rfingers 7.12502
rthumb -1.27791 -3.72762
lclavicle 2.68359e-015 4.09993e-015
lhumerus 60.6574 -22.2872 29.1262
lradius 48.1086
lwrist -18.485
lhand -44.1037 78.6283
lfingers 7.12502
lthumb -16.921 252.089
rfemur -10.9495 6.35725 23.3464
rtibia 35.5687
rfoot -42.9938 -21.8843
rtoes -11.4285
lfemur -86.2681 -2.61184 -30.489
ltibia 84.9239
lfoot -8.5643 30.0714
ltoes -13.2039
1015
root -3.20415 12.6759 -1.12033 -326.087 -82.0004 366.267
lowerback 34.574 1.30302 -0.880084
upperback 8.88628 0.366918 -1.21186
thorax -7.71409 -0.122963 -0.900231
lowerneck -10.7762 1.85727 2.17233
upperneck 6.06426 1.59683 5.64471
head 3.90482 1.08461 1.61344
rclavicle 6.16232e-015 -6.26172e-015
rhumerus 38.0636 23.933 -47.3099
rradius 59.2918
rwrist 12.1479
rhand -27.9952 26.2136
rfingers 7.12502
rthumb -1.38128 -3.76171
lclavicle 6.16232e-015 -6.26172e-015
lhumerus 60.739 -22.5626 28.7137
lradius 48.3197
lwrist -18.1634
lhand -44.2224 79.0781
lfingers 7.12502
lthumb -17.0353 251.649
rfemur -10.1366 6.32538 23.0026
rtibia 34.3728
rfoot -41.8762 -21.3746
rtoes -11.2277
lfemur -86.1316 -2.98904 -30.8784
ltibia 85.4992
lfoot -6.72423 28.7052
ltoes -23.4805
